<mxfile host="app.diagrams.net" agent="Mozilla/5.0 (Windows NT 10.0; Win64; x64) AppleWebKit/537.36 (KHTML, like Gecko) Chrome/127.0.0.0 Safari/537.36" version="26.0.10">
  <diagram name="Страница — 1" id="-8I3Ju_DQWI-anv-8iCS">
    <mxGraphModel dx="1050" dy="565" grid="1" gridSize="10" guides="1" tooltips="1" connect="1" arrows="1" fold="1" page="1" pageScale="1" pageWidth="827" pageHeight="1169" math="0" shadow="0">
      <root>
        <mxCell id="0" />
        <mxCell id="1" parent="0" />
        <mxCell id="0EsYlZYB2VsYlDsrYex--1" value="Система бронирования" style="swimlane;html=1;startSize=20;fontStyle=0;collapsible=0;horizontal=0;swimlaneLine=1;swimlaneFillColor=#ffffff;strokeWidth=2;whiteSpace=wrap;" vertex="1" parent="1">
          <mxGeometry x="10" y="100" width="810" height="360" as="geometry" />
        </mxCell>
        <mxCell id="0EsYlZYB2VsYlDsrYex--2" value="Клиент" style="swimlane;html=1;startSize=20;fontStyle=0;collapsible=0;horizontal=1;swimlaneLine=0;fillColor=none;whiteSpace=wrap;" vertex="1" parent="1">
          <mxGeometry x="10" y="480" width="810" height="35" as="geometry" />
        </mxCell>
        <mxCell id="0EsYlZYB2VsYlDsrYex--3" value="" style="swimlane;html=1;startSize=20;fontStyle=0;collapsible=0;horizontal=1;swimlaneLine=0;fillColor=none;whiteSpace=wrap;" vertex="1" parent="1">
          <mxGeometry x="9" y="50" width="810" height="35" as="geometry" />
        </mxCell>
      </root>
    </mxGraphModel>
  </diagram>
</mxfile>
